<svg width="238" height="70" viewBox="0 0 238 70" fill="none" xmlns="http://www.w3.org/2000/svg">
<path d="M90.4853 16.9393C95.5896 17.7463 100.193 18.9757 100.193 23.7056C100.193 28.4354 95.0884 30.2185 90.1233 30.2185C86.8473 30.2185 82.6989 29.0548 81.1676 26.5398C81.0175 26.2548 80.9427 25.9356 80.9503 25.6129C80.9579 25.2902 81.0477 24.9749 81.2109 24.6975C81.3742 24.4201 81.6055 24.19 81.8824 24.0294C82.1593 23.8688 82.4725 23.7831 82.7917 23.7807H85.8821C85.8821 27.4501 88.2579 28.6513 90.1604 28.6513C92.063 28.6513 94.5873 27.4501 94.5873 23.7807C94.5873 22.2134 92.462 21.6691 89.7985 21.2656C84.6571 20.4679 80.5179 18.91 80.5179 14.6963C80.5179 10.2574 86.0863 8.51186 90.012 8.37109C92.9261 8.37109 97.5663 9.60048 99.0048 12.8382C99.0983 13.1179 99.1252 13.4161 99.0833 13.7083C99.0414 14.0006 98.9319 14.2787 98.7637 14.5201C98.5955 14.7615 98.3734 14.9594 98.1153 15.0976C97.8573 15.2359 97.5706 15.3106 97.2786 15.3157H94.0119C94.0119 11.1677 91.4876 9.92894 90.0862 9.92894C88.4714 9.92894 86.0956 11.1677 86.0956 14.6213C86.0956 16.151 88.5085 16.6953 90.4481 16.9862L90.4853 16.9393Z" fill="white"/>
<path d="M118.123 29.6743C119.126 28.0299 119.602 26.1126 119.487 24.1843V19.0133C119.487 13.5984 118.912 9.91961 115.459 9.91961C111.07 9.91961 109.705 13.5984 109.705 19.0133V24.1843C109.662 25.7402 109.944 27.2879 110.531 28.7264V28.8015C110.698 29.1294 110.891 29.4432 111.107 29.74L111.181 29.8057H102.541L102.689 29.6273C103.692 27.983 104.169 26.0657 104.054 24.1373V6.61622C104.054 2.64652 102.541 0.985437 102.541 0.985437H105.102C105.707 0.981711 106.307 1.09926 106.866 1.33127C107.426 1.56329 107.934 1.90517 108.362 2.33716C108.79 2.76914 109.129 3.28266 109.36 3.848C109.59 4.41334 109.708 5.0193 109.705 5.63083V11.5995C110.958 9.77884 112.434 8.36176 115.422 8.36176C122.726 8.36176 125.065 13.2699 125.065 19.3042V24.1843C125.021 25.7402 125.303 27.2879 125.891 28.7264V28.8015C126.057 29.1294 126.25 29.4432 126.466 29.74L126.531 29.815H117.9L118.049 29.6273L118.123 29.6743Z" fill="white"/>
<path d="M151.403 24.6157C151.342 26.4359 151.874 28.226 152.916 29.7115H149.064C147.551 29.7115 145.825 28.4728 145.825 26.9431C144.535 28.7637 143.041 30.1808 140.071 30.1808C132.777 30.1808 128.712 25.2726 128.712 19.2289C128.712 13.1852 132.777 8.28642 140.071 8.28642C141.307 8.2776 142.536 8.47416 143.709 8.86826C145.181 9.49733 146.767 9.8089 148.365 9.78304C149.963 9.75719 151.538 9.39448 152.99 8.71811C151.907 10.3848 151.377 12.3571 151.477 14.3489L151.403 24.6157ZM140.034 28.5103C144.424 28.5103 145.788 22.6918 145.788 19.1914C145.788 13.814 144.424 9.85365 140.034 9.85365C136.582 9.85365 134.28 13.814 134.28 19.2383C134.28 24.6626 136.582 28.6229 140.034 28.6229V28.5103Z" fill="white"/>
<path d="M178.252 24.0716C178.252 28.0319 179.764 29.7024 179.764 29.7024H177.713C176.695 29.7092 175.697 29.4165 174.84 28.86C173.983 28.3035 173.305 27.5072 172.887 26.5679C172.022 27.705 170.904 28.6203 169.624 29.2398C168.344 29.8593 166.937 30.1656 165.519 30.1341C159.226 30.1341 155.551 25.2259 155.551 19.1822C155.551 13.1385 158.79 8.24911 165.556 8.24911C166.906 8.21603 168.247 8.48975 169.479 9.05009C170.711 9.61043 171.802 10.4431 172.674 11.4868V6.56926C172.674 2.59956 171.161 0.938477 171.161 0.938477H173.175C175.699 0.938477 178.252 3.01248 178.252 5.55572V24.0716ZM166.883 28.5105C171.235 28.5105 172.637 22.6921 172.637 19.1916C172.637 13.8142 171.273 9.85388 166.883 9.85388C163.43 9.85388 161.166 13.8142 161.166 19.2385C161.166 24.6628 163.43 28.6232 166.883 28.6232V28.5105Z" fill="white"/>
<path d="M205.1 8.68994C203.266 10.5475 201.778 12.7254 200.711 15.1184L192.358 33.9628C191.97 35.0513 191.263 35.9941 190.331 36.665C189.399 37.3359 188.286 37.7028 187.142 37.7166C185.816 37.6914 184.535 37.2191 183.504 36.3746C182.683 35.5427 182.208 34.4244 182.177 33.2495C182.172 32.9358 182.229 32.6243 182.344 32.333C182.46 32.0417 182.631 31.7766 182.849 31.553C183.067 31.3294 183.326 31.1518 183.612 31.0306C183.898 30.9094 184.206 30.847 184.516 30.8471H187.755C186.242 32.3392 186.066 36.0837 187.393 36.0837C189.583 36.0837 191.022 32.7334 191.022 32.7334C191.745 31.138 191.207 28.7731 190.483 27.1683L185.323 15.4844C184.199 12.9802 182.668 10.6837 180.794 8.68994H189.964C189.889 9.1207 189.852 9.55715 189.852 9.99441C189.845 11.2896 190.117 12.5707 190.65 13.7483L195.068 23.7898L199.708 13.279C200.352 11.8557 200.541 10.2643 200.246 8.72748L205.1 8.68994Z" fill="white"/>
<path d="M93.288 39.7065C98.5037 39.7065 99.6545 42.4375 99.6545 46.1444C99.6569 46.4476 99.6003 46.7483 99.4878 47.0293C99.3753 47.3104 99.2092 47.5662 98.9989 47.7824C98.7887 47.9985 98.5383 48.1706 98.2623 48.2889C97.9862 48.4072 97.6898 48.4693 97.39 48.4718H94.0861C94.0861 48.4718 96.8146 41.3395 93.3623 41.3395C88.9725 41.3395 87.6454 44.0704 87.6454 49.4572V55.5666C87.6009 57.1226 87.8824 58.6705 88.4714 60.1087V60.1838C88.6356 60.5131 88.8281 60.8271 89.0468 61.1223L89.1118 61.1974H80.4808L80.6293 61.0097C81.0284 60.4654 81.9936 58.7573 81.9936 55.5197V45.8066C82.0137 44.3695 81.7714 42.941 81.279 41.5929C81.0953 41.1014 80.8522 40.6349 80.5551 40.2039C83.6528 41.5348 87.1448 41.5753 90.2718 40.3165C91.2536 39.9173 92.3042 39.7196 93.3623 39.7347L93.288 39.7065Z" fill="white"/>
<path d="M117.185 61.1317C118.188 59.4873 118.665 57.5701 118.55 55.6417V50.4708C118.55 45.0558 117.974 41.377 114.522 41.377C110.132 41.377 108.768 45.0558 108.768 50.4708V55.6417C108.725 57.1976 109.006 58.7453 109.594 60.1839V60.2589C109.761 60.5868 109.953 60.9006 110.169 61.1974L110.244 61.2631H101.613L101.752 61.0848C102.151 60.5405 103.116 58.8325 103.116 55.5948V38.0737C103.116 34.104 101.613 32.4429 101.613 32.4429H104.165C105.375 32.4454 106.535 32.9326 107.391 33.798C108.247 34.6633 108.728 35.8363 108.731 37.0601V43.0287C109.993 41.2081 111.459 39.791 114.448 39.791C121.751 39.791 124.09 44.6992 124.09 50.7429V55.6135C124.047 57.1695 124.328 58.7172 124.916 60.1557V60.2308C125.083 60.5586 125.275 60.8725 125.492 61.1692L125.566 61.2443H116.926L117.074 61.0566L117.185 61.1317Z" fill="white"/>
<path d="M148.6 40.1477C146.763 42.0068 145.276 44.1883 144.21 46.5855L135.858 65.4205C135.476 66.5128 134.77 67.4594 133.837 68.1311C132.904 68.8029 131.788 69.1672 130.642 69.1744C129.316 69.1491 128.035 68.6768 127.004 67.8324C126.182 67.0015 125.707 65.8826 125.677 64.7073C125.672 64.3936 125.729 64.082 125.844 63.7907C125.96 63.4995 126.131 63.2343 126.349 63.0107C126.567 62.7871 126.826 62.6095 127.112 62.4884C127.398 62.3672 127.706 62.3048 128.016 62.3048H131.255C129.742 63.797 129.566 67.5414 130.893 67.5414C133.083 67.5414 134.522 64.2005 134.522 64.2005C135.245 62.5957 134.707 60.2308 133.983 58.6354L128.851 46.9234C127.727 44.4191 126.196 42.1226 124.322 40.1289H133.491C133.418 40.5597 133.38 40.9961 133.38 41.4334C133.371 42.7286 133.644 44.0101 134.178 45.1872L138.596 55.2288L143.236 44.718C143.88 43.2947 144.069 41.7033 143.774 40.1664L148.6 40.1477Z" fill="white"/>
<path d="M178.103 61.2069C179.111 59.5609 179.591 57.64 179.477 55.7075V49.6356C179.477 44.2582 178.549 41.5273 176.275 41.5273C172.563 41.5273 171.161 44.033 171.059 49.1288V55.6981C171.015 57.2571 171.296 58.808 171.885 60.2496V60.3247C172.048 60.6547 172.241 60.9689 172.46 61.2632L172.525 61.3383H163.978L164.127 61.16C165.129 59.5156 165.606 57.5983 165.491 55.6699V49.5324C165.491 44.1456 164.516 41.4147 162.289 41.4147C158.475 41.4147 157.036 44.1456 157.036 49.5324V55.6418C156.998 57.1973 157.279 58.7439 157.862 60.1839V60.259C158.033 60.5847 158.225 60.8983 158.438 61.1975L158.512 61.2632H149.881L150.02 61.0849C150.419 60.5406 151.394 58.8326 151.394 55.5949V45.8818C151.411 44.4441 151.166 43.0155 150.67 41.6681C150.485 41.1787 150.246 40.7126 149.955 40.2791C151.399 40.9377 152.962 41.2876 154.547 41.307C156.131 41.3264 157.702 41.0148 159.161 40.3917C160.318 39.9953 161.532 39.7986 162.753 39.8099C164.083 39.7575 165.399 40.1013 166.537 40.7987C167.676 41.4961 168.587 42.5163 169.157 43.7327C169.907 42.5363 170.943 41.5499 172.169 40.8644C173.395 40.1789 174.772 39.8163 176.173 39.8099C182.465 39.8099 185.128 44.7181 185.128 50.7618V55.6324C185.085 57.1883 185.366 58.736 185.954 60.1746V60.2496C186.121 60.5775 186.314 60.8913 186.53 61.1881L186.604 61.2632H177.973L178.112 61.0755L178.103 61.2069Z" fill="white"/>
<path d="M202.261 59.6771C207.727 59.6771 211.467 54.478 211.467 54.478C209.991 58.3633 205.639 61.6385 200.33 61.6385C193.203 61.6385 188.748 56.6553 188.748 50.6209C188.748 44.5866 193.203 39.7441 200.33 39.7441C205.973 39.7441 210.4 42.766 211.652 47.7117C211.782 48.1942 211.799 48.7006 211.702 49.1908C211.604 49.681 211.396 50.1417 211.093 50.5366C210.79 50.9315 210.4 51.2498 209.954 51.4664C209.509 51.6829 209.019 51.7919 208.525 51.7846H194.669C195.495 55.7074 197.871 59.6771 202.298 59.6771H202.261ZM198.409 41.5648C194.697 42.5783 194.094 46.6231 194.344 50.1517H204.989C205.171 50.1394 205.349 50.0891 205.511 50.004C205.674 49.9189 205.817 49.8009 205.932 49.6573C206.047 49.5137 206.131 49.3476 206.18 49.1694C206.228 48.9913 206.24 48.8049 206.214 48.622C205.564 44.474 202.66 40.4011 198.446 41.5648H198.409Z" fill="white"/>
<path d="M224.302 48.3964C229.415 49.2035 234.019 50.4329 234.019 55.1627C234.019 59.8926 228.905 61.6757 223.94 61.6757C220.673 61.6757 216.515 60.512 214.984 58.0063C214.82 57.7197 214.735 57.3945 214.735 57.0636C214.736 56.7327 214.823 56.4078 214.988 56.122C215.153 55.8362 215.39 55.5995 215.674 55.436C215.959 55.2725 216.281 55.1879 216.608 55.1909H219.662C219.662 58.8603 222.037 60.0615 223.94 60.0615C225.842 60.0615 228.367 58.8603 228.367 55.1909C228.367 53.6236 226.241 53.0793 223.587 52.6852C218.436 51.8781 214.307 50.3202 214.307 46.0596C214.307 41.6301 219.875 39.8751 223.801 39.7344C226.715 39.7344 231.355 40.9731 232.794 44.2108C232.885 44.4901 232.911 44.7872 232.868 45.0782C232.825 45.3692 232.715 45.646 232.547 45.8862C232.379 46.1264 232.158 46.3233 231.901 46.461C231.644 46.5987 231.358 46.6734 231.067 46.679H227.791C227.791 42.531 225.276 41.2922 223.866 41.2922C222.251 41.2922 219.875 42.531 219.875 45.9845C219.875 47.5142 222.288 48.0585 224.228 48.3495L224.302 48.3964Z" fill="white"/>
<path d="M26.5512 39.517L16.4399 49.6312L18.3807 51.557L28.5547 41.3801C29.5019 41.9975 30.5685 42.4083 31.6851 42.5857V62H34.4086V42.5857C35.5684 42.3868 36.6727 41.9439 37.6486 41.2862L47.6503 51.2908L49.5912 49.365L39.6051 39.3761C40.3582 38.353 40.862 37.1682 41.0764 35.9159H59.9999V33.1917H41.0294C40.8521 32.0748 40.4415 31.0078 39.8242 30.0603L49.2155 20.6663L47.2903 18.7405L37.899 28.1345C36.848 27.321 35.6106 26.7829 34.299 26.5689V8H31.6381V26.5219C30.3863 26.7363 29.2017 27.2403 28.179 27.9936L18.6468 18.4587L16.706 20.3688L26.2694 29.9351C25.6054 30.9077 25.162 32.0139 24.9703 33.176H5.99988V35.9003H24.9703C25.1864 37.2192 25.7299 38.4627 26.5512 39.517ZM32.9999 29.1209C34.072 29.1302 35.1175 29.4567 36.0044 30.0593C36.8914 30.6618 37.5802 31.5135 37.9841 32.5071C38.388 33.5006 38.4889 34.5914 38.2741 35.6422C38.0592 36.693 37.5383 37.6566 36.7769 38.4117C36.0155 39.1668 35.0476 39.6796 33.9954 39.8855C32.9431 40.0913 31.8535 39.981 30.8638 39.5685C29.874 39.1559 29.0285 38.4596 28.4338 37.5672C27.8391 36.6748 27.5217 35.6263 27.5216 34.5538C27.5216 33.8364 27.6636 33.126 27.9395 32.4638C28.2154 31.8016 28.6196 31.2006 29.129 30.6955C29.6383 30.1903 30.2426 29.7911 30.907 29.5209C31.5714 29.2507 32.2827 29.1147 32.9999 29.1209Z" fill="#FADCD9" stroke="#FADCD9" stroke-miterlimit="10"/>
</svg>
